<?xml version="1.0" encoding="UTF-8"?>
<svg width="773px" height="161px" viewBox="0 0 773 161" version="1.1" xmlns="http://www.w3.org/2000/svg" xmlns:xlink="http://www.w3.org/1999/xlink">
    <title>logo</title>
    <g id="页面-1" stroke="none" stroke-width="1" fill="none" fill-rule="evenodd">
        <g id="logo" transform="translate(0.000000, 0.000000)" fill-rule="nonzero">
            <path d="M134.308948,83.5443456 C134.308948,83.5443456 178.273792,13.0560643 152.336292,2.91934559 C126.379261,-7.21737316 100.422229,69.4037206 100.422229,69.4037206 L134.308948,83.5443456 Z" id="路径" fill="#FFFFFF"></path>
            <path d="M134.308948,85.5170018 C134.055042,85.5170018 133.801136,85.4584081 133.547229,85.3607518 L99.6605107,71.2201268 C98.7034795,70.8099706 98.2151982,69.7357518 98.5472295,68.7591893 C99.3284795,66.4545018 117.980823,12.0795018 140.148792,1.74747059 C144.582386,-0.303310665 148.918323,-0.537685665 153.058948,1.06387684 C157.160511,2.66543934 159.973011,5.67325184 161.398792,9.98965809 C168.644886,31.8255956 137.316761,82.4310643 135.988636,84.5795018 C135.617542,85.1849706 134.973011,85.5170018 134.308948,85.5170018 L134.308948,85.5170018 Z M102.922229,68.3099706 L133.508167,81.0638768 C138.586292,72.6459081 163.683948,29.4427831 157.648792,11.2591893 C156.594104,8.07559559 154.621448,5.94668934 151.613636,4.77481434 C148.488636,3.54434559 145.285511,3.73965809 141.828479,5.36075184 C123.273792,13.9935643 106.320667,58.8568456 102.922229,68.3099706 Z" id="形状" fill="#7F0518"></path>
            <path d="M130.969104,70.7709081 C130.969104,70.7709081 157.844104,26.1810643 145.090198,19.7748143 C132.336292,13.3685643 114.367542,61.8255956 114.367542,61.8255956 L130.969104,70.7709081 L130.969104,70.7709081 Z" id="路径" fill="#FFC831"></path>
            <path d="M130.969104,72.7630956 C130.656604,72.7630956 130.324573,72.6849706 130.031604,72.5287206 L113.430042,63.5834081 C112.551136,63.1146581 112.160511,62.0795018 112.512073,61.1420018 C113.957386,57.2357518 127.062854,22.7435643 139.543323,17.8412206 C141.808948,16.9427831 143.976917,17.0013768 145.988636,18.0170018 C147.961292,19.0130956 149.308948,20.7123143 149.992542,23.0755956 C153.781604,36.2005956 134.836292,68.1927831 132.668323,71.8060643 C132.297229,72.4115331 131.633167,72.7630956 130.969104,72.7630956 L130.969104,72.7630956 Z M116.848011,60.9076268 L130.246448,68.1146581 C136.379261,57.6068456 148.859729,33.3490331 146.203479,24.1498143 C145.832386,22.8607518 145.187854,22.0209081 144.211292,21.5326268 C143.234729,21.0443456 142.219104,21.0248143 141.008167,21.5130956 C132.258167,24.9701268 121.144886,49.7357518 116.848011,60.9076268 L116.848011,60.9076268 Z" id="形状" fill="#7F0518"></path>
            <path d="M28.1761357,83.5443456 C28.1761357,83.5443456 -15.788708,13.0560643 10.148792,2.91934559 C36.1058232,-7.21737316 62.0628545,69.4037206 62.0628545,69.4037206 L28.1761357,83.5443456 Z" id="路径" fill="#FFFFFF"></path>
            <path d="M28.1761357,85.5170018 C27.5120732,85.5170018 26.867542,85.1849706 26.4964482,84.5795018 C25.1683232,82.4310643 -6.15980179,31.8451268 1.08629196,9.98965809 C2.51207321,5.67325184 5.32457321,2.66543934 9.42613571,1.06387684 C13.5667607,-0.557216915 17.9026982,-0.322841915 22.336292,1.74747059 C44.5042607,12.0795018 63.1370732,66.4545018 63.9378545,68.7591893 C64.2698857,69.7357518 63.7816045,70.8295018 62.8245732,71.2201268 L28.9378545,85.3607518 C28.6839482,85.4779393 28.430042,85.5170018 28.1761357,85.5170018 L28.1761357,85.5170018 Z M14.9730107,3.97403309 C13.586292,3.97403309 12.2191045,4.22793934 10.8714482,4.75528309 C7.86363571,5.92715809 5.89097946,8.05606434 4.83629196,11.2396581 C-1.17933304,29.4427831 23.9183232,72.6263768 28.976917,81.0638768 L59.5628545,68.3099706 C56.164417,58.8568456 39.211292,13.9935643 20.6566045,5.36075184 C18.7034795,4.44278309 16.8089482,3.97403309 14.9730107,3.97403309 Z" id="形状" fill="#7F0518"></path>
            <path d="M31.5159795,70.7709081 C31.5159795,70.7709081 4.64097946,26.1810643 17.3948857,19.7748143 C30.148792,13.3685643 48.117542,61.8255956 48.117542,61.8255956 L31.5159795,70.7709081 Z" id="路径" fill="#FFC831"></path>
            <path d="M31.5159795,72.7630956 C30.851917,72.7630956 30.1878545,72.4115331 29.8167607,71.8060643 C27.648792,68.1927831 8.68394821,36.2005956 12.492542,23.0755956 C13.1761357,20.7123143 14.523792,19.0130956 16.4964482,18.0170018 C18.508167,17.0013768 20.6761357,16.9623143 22.9417607,17.8412206 C35.4222295,22.7435643 48.508167,57.2162206 49.9730107,61.1420018 C50.3245732,62.0599706 49.9339482,63.1146581 49.055042,63.5834081 L32.4730107,72.5287206 C32.1605107,72.6849706 31.8480107,72.7630956 31.5159795,72.7630956 Z M19.8167607,21.1810643 C19.289417,21.1810643 18.7816045,21.2982518 18.273792,21.5521581 C17.2972295,22.0404393 16.6526982,22.8802831 16.2816045,24.1693456 C13.6253545,33.3685643 26.1058232,57.6068456 32.2386357,68.1341893 L45.6370732,60.9271581 C41.320667,49.7552831 30.226917,24.9896581 21.4964482,21.5521581 C20.8909795,21.2982518 20.3441045,21.1810643 19.8167607,21.1810643 Z" id="形状" fill="#7F0518"></path>
            <path d="M151.418359,108.329502 C151.457386,143.563877 119.699573,158.114658 80.5198857,158.153799 C41.3401982,158.192783 9.56285446,143.681064 9.52378321,108.446689 C9.50426071,73.2123143 42.180042,36.8255956 81.3597295,36.7865252 C120.539417,36.7670018 151.379261,73.0951268 151.418359,108.329502 Z" id="路径" fill="#FFFFFF"></path>
            <path d="M80.3636357,160.126377 C59.4261357,160.126377 41.7698857,156.005283 29.2698857,148.192783 C14.8558232,139.188877 7.5315954,125.809971 7.5315954,108.446689 C7.51207321,73.7201268 39.0745732,34.8529393 81.3597295,34.8138768 L81.4183232,34.8138768 C122.590198,34.8138768 153.371448,73.6029393 153.410553,108.329502 C153.449573,140.731846 126.183948,160.106846 80.5198857,160.145908 C80.461292,160.126377 80.4222295,160.126377 80.3636357,160.126377 Z M81.398792,38.7787206 L81.3401982,38.7787206 C49.0159795,38.8177831 11.4573857,69.2474706 11.4769094,108.446689 C11.4964482,124.364658 18.1761357,136.610752 31.3597295,144.833408 C43.2151982,152.255283 60.1683232,156.161533 80.3636357,156.161533 L80.5003545,156.161533 C101.242542,156.142002 149.465198,151.434971 149.426159,108.329502 C149.387073,75.4779393 120.305042,38.7787206 81.398792,38.7787206 Z" id="形状" fill="#7F0518"></path>
            <path d="M100.441761,91.3959081 C100.441761,98.7525135 106.405468,104.716221 113.762073,104.716221 C121.118679,104.716221 127.082386,98.7525135 127.082386,91.3959081 C127.082386,84.0393026 121.118679,78.0755956 113.762073,78.0755956 C106.405468,78.0755956 100.441761,84.0393026 100.441761,91.3959081 Z" id="路径" fill="#7F0518"></path>
            <path d="M104.269886,88.7201268 C104.269886,92.1071857 107.015639,94.8529393 110.402698,94.8529393 C113.789757,94.8529393 116.535511,92.1071857 116.535511,88.7201268 C116.535511,85.333068 113.789757,82.5873143 110.402698,82.5873143 C107.015639,82.5873143 104.269886,85.333068 104.269886,88.7201268 L104.269886,88.7201268 Z" id="路径" fill="#FFFFFF"></path>
            <path d="M115.480823,97.6459081 C115.480823,99.1884221 116.731278,100.438877 118.273792,100.438877 C119.816306,100.438877 121.066761,99.1884221 121.066761,97.6459081 C121.066761,96.103394 119.816306,94.8529393 118.273792,94.8529393 C116.731278,94.8529393 115.480823,96.103394 115.480823,97.6459081 L115.480823,97.6459081 Z" id="路径" fill="#FFFFFF"></path>
            <path d="M33.8401982,91.3959081 C33.8401982,96.1547975 36.3790353,100.552193 40.5003544,102.931637 C44.6216735,105.311082 49.699348,105.311082 53.820667,102.931637 C57.9419861,100.552193 60.4808232,96.1547975 60.4808232,91.3959081 C60.4808232,86.6370187 57.9419861,82.2396236 53.820667,79.8601788 C49.699348,77.4807341 44.6216735,77.4807341 40.5003544,79.8601788 C36.3790353,82.2396236 33.8401982,86.6370187 33.8401982,91.3959081 L33.8401982,91.3959081 Z" id="路径" fill="#7F0518"></path>
            <path d="M37.6878545,88.7201268 C37.6878545,92.1071857 40.4336081,94.8529393 43.820667,94.8529393 C47.2077258,94.8529393 49.9534795,92.1071857 49.9534795,88.7201268 C49.9534795,85.333068 47.2077258,82.5873143 43.820667,82.5873143 C40.4336081,82.5873143 37.6878545,85.333068 37.6878545,88.7201268 Z" id="路径" fill="#FFFFFF"></path>
            <path d="M48.8792607,97.6459081 C48.8792607,99.1884221 50.1297154,100.438877 51.6722295,100.438877 C53.2147435,100.438877 54.4651982,99.1884221 54.4651982,97.6459081 C54.4651982,96.103394 53.2147435,94.8529393 51.6722295,94.8529393 C50.1297154,94.8529393 48.8792607,96.103394 48.8792607,97.6459081 L48.8792607,97.6459081 Z" id="路径" fill="#FFFFFF"></path>
            <path d="M105.363636,72.2748143 C104.933948,72.2748143 104.484729,72.1380956 104.113636,71.8255956 C103.254261,71.1420018 103.137073,69.8920018 103.820667,69.0326268 C103.957386,68.8568456 107.336292,64.7943456 112.707386,64.4037206 C116.379261,64.1498143 120.012073,65.6146581 123.488636,68.8177831 C124.289417,69.5599706 124.348011,70.8099706 123.605823,71.6107518 C122.863636,72.4115331 121.613636,72.4701268 120.793323,71.7279393 C118.156604,69.3060643 115.598011,68.1537206 112.980823,68.3490331 C109.348011,68.6029393 106.906604,71.4935643 106.887073,71.5326268 C106.496448,72.0209081 105.930042,72.2748143 105.363636,72.2748143 L105.363636,72.2748143 Z" id="路径" fill="#7F0518"></path>
            <path d="M40.1683232,72.2748143 C39.7386357,72.2748143 39.289417,72.1380956 38.9183232,71.8255956 C38.0589482,71.1420018 37.9417607,69.8920018 38.6253545,69.0326268 C38.7620732,68.8568456 42.1409795,64.7943456 47.5120732,64.4037206 C51.1839482,64.1498143 54.8167607,65.6146581 58.2933232,68.8177831 C59.0941045,69.5599706 59.1526982,70.8099706 58.4105107,71.6107518 C57.6683232,72.4115331 56.4183232,72.4701268 55.5980107,71.7279393 C52.961292,69.3060643 50.4222295,68.1537206 47.7855107,68.3490331 C44.1526982,68.6029393 41.711292,71.4935643 41.6917607,71.5326268 C41.320667,72.0209081 40.7347295,72.2748143 40.1683232,72.2748143 L40.1683232,72.2748143 Z" id="路径" fill="#7F0518"></path>
            <path d="M92.883167,112.177158 C92.883167,116.688877 87.6683232,120.341221 81.2230107,120.341221 C74.7776982,120.341221 69.5823857,116.688877 69.5823857,112.177158 C69.5823857,107.665439 74.7972295,104.013096 81.2230107,104.013096 C87.648792,104.013096 92.883167,107.684971 92.883167,112.177158 Z" id="路径" fill="#7F0518"></path>
            <path d="M70.8909795,135.927158 C69.8948857,135.927158 68.9573857,135.751377 68.0784795,135.380283 C62.648792,133.173252 62.0628545,125.224033 62.0042607,124.325596 C61.945667,123.231846 62.7659795,122.294346 63.8597295,122.235752 C65.0511357,122.177158 65.8909795,123.017002 65.9495732,124.091221 C66.0472295,125.731846 66.9261357,130.634189 69.5823857,131.708408 C71.6917607,132.567783 75.1097295,131.044346 79.2503545,127.411533 L79.2503545,117.372471 C79.2503545,116.278721 80.1292607,115.399814 81.2230107,115.399814 C82.3167607,115.399814 83.195667,116.278721 83.195667,117.372471 L83.195667,128.309971 C83.195667,128.876377 82.961292,129.403721 82.5511357,129.774814 C78.039417,133.895908 74.1917607,135.927158 70.8909795,135.927158 L70.8909795,135.927158 Z" id="路径" fill="#7F0518"></path>
            <path d="M91.476917,135.927158 C88.2542607,135.927158 84.4261357,133.895908 79.914417,129.774814 C79.1136357,129.032627 79.0355107,127.782627 79.7776982,126.981846 C80.5198857,126.181064 81.7698857,126.122471 82.570667,126.845127 C87.0042607,130.888096 90.617542,132.606846 92.7073857,131.708408 C95.226917,130.653721 95.9495732,125.731846 96.008167,124.091221 C96.0472295,123.017002 96.9261357,122.177158 97.9808232,122.177158 L98.039417,122.177158 C99.133167,122.216221 99.992542,123.134189 99.9534795,124.227939 C99.914417,125.126377 99.523792,133.114658 94.2308232,135.360752 C93.3714482,135.731846 92.4534795,135.927158 91.476917,135.927158 L91.476917,135.927158 Z" id="路径" fill="#7F0518"></path>
            <path d="M118.332386,113.739658 C118.332386,118.12989 123.771426,121.688877 130.480823,121.688877 C137.19022,121.688877 142.629261,118.12989 142.629261,113.739658 C142.629261,109.349426 137.19022,105.790439 130.480823,105.790439 C123.771426,105.790439 118.332386,109.349426 118.332386,113.739658 Z" id="路径" fill="#FF6A48"></path>
            <path d="M19.8558232,113.739658 C19.8558232,118.12989 25.2948639,121.688877 32.0042607,121.688877 C38.7136575,121.688877 44.1526982,118.12989 44.1526982,113.739658 C44.1526982,110.899676 41.8372192,108.275424 38.0784795,106.855433 C34.3197399,105.435441 29.6887816,105.435441 25.9300419,106.855433 C22.1713022,108.275424 19.8558232,110.899676 19.8558232,113.739658 L19.8558232,113.739658 Z" id="路径" fill="#FF6A48"></path>
            <g id="AdiHuang" transform="translate(208.000000, 28.360000)" fill="#2D2D2D">
                <path d="M37.18,1.82 L0,94.64 L8.71,94.64 L19.5,66.95 L64.22,66.95 L75.01,94.64 L83.72,94.64 L46.54,1.82 L37.18,1.82 Z M22.1,60.19 L41.73,10.4 L42.12,10.4 L61.62,60.19 L22.1,60.19 Z" id="形状"></path>
                <path d="M142.61,-1.42108547e-14 L142.61,41.6 C137.67,30.94 129.74,25.61 119.08,25.61 C109.59,25.61 102.18,29.12 96.72,36.4 C91.78,42.9 89.31,51.09 89.31,60.97 C89.31,70.98 91.78,79.3 96.72,85.8 C102.18,92.82 109.72,96.46 119.47,96.46 C130.52,96.46 138.32,91.39 143,81.38 L143,94.64 L150.41,94.64 L150.41,-1.42108547e-14 L142.61,-1.42108547e-14 Z M120.51,32.24 C127.27,32.24 132.73,34.84 136.89,40.3 C140.79,45.5 142.87,52.13 142.87,60.45 L142.87,62.01 C142.87,69.94 140.92,76.44 137.28,81.51 C133.25,86.97 127.53,89.83 120.25,89.83 C112.58,89.83 106.73,86.97 102.7,81.25 C99.06,76.18 97.24,69.42 97.24,60.97 C97.24,52.52 99.06,45.76 102.83,40.82 C106.99,35.1 112.84,32.24 120.51,32.24 Z" id="形状"></path>
                <path d="M174.59,3.25 C172.64,3.25 171.08,3.9 169.91,5.2 C168.61,6.24 167.96,7.8 167.96,9.75 C167.96,11.57 168.61,13.13 169.91,14.43 C171.08,15.6 172.64,16.25 174.59,16.25 C176.41,16.25 177.84,15.6 179.14,14.43 C180.44,13.13 181.22,11.57 181.22,9.75 C181.22,7.8 180.57,6.24 179.27,5.2 C177.97,3.9 176.41,3.25 174.59,3.25 Z M170.69,27.43 L170.69,94.64 L178.49,94.64 L178.49,27.43 L170.69,27.43 Z" id="形状"></path>
                <polygon id="路径" points="200.07 1.82 200.07 94.64 208 94.64 208 50.18 265.59 50.18 265.59 94.64 273.52 94.64 273.52 1.82 265.59 1.82 265.59 43.03 208 43.03 208 1.82"></polygon>
                <path d="M291.2,27.43 L291.2,68.9 C291.2,87.23 299.39,96.46 315.77,96.46 C325.39,96.46 332.93,92.04 338.13,83.33 L338.13,94.64 L345.93,94.64 L345.93,27.43 L338.13,27.43 L338.13,68.25 C337.61,74.62 335.4,79.82 331.5,83.72 C327.6,87.62 323.05,89.7 317.85,89.7 C311.35,89.7 306.54,87.88 303.42,84.24 C300.43,80.73 299,75.53 299,68.51 L299,27.43 L291.2,27.43 Z" id="路径"></path>
                <path d="M390.78,25.61 C383.11,25.61 376.87,27.17 372.06,30.42 C366.6,33.8 363.22,39 361.92,45.76 L369.59,46.28 C370.63,41.6 373.1,38.09 377,35.62 C380.51,33.28 384.93,32.24 390.39,32.24 C403.39,32.24 409.89,38.61 409.89,51.35 L409.89,55.38 L392.73,55.64 C382.59,55.64 374.66,57.46 369.2,60.97 C362.83,64.61 359.71,70.33 359.71,78.13 C359.71,83.59 361.79,88.14 366.08,91.52 C369.98,94.77 375.31,96.46 381.81,96.46 C388.18,96.46 394.03,94.77 399.49,91.65 C403.91,89.05 407.55,85.67 410.28,81.77 L410.28,94.64 L417.69,94.64 L417.69,51.35 C417.69,43.55 415.61,37.57 411.71,33.28 C407.16,28.08 400.14,25.61 390.78,25.61 Z M409.89,61.49 L409.89,68.51 C409.89,73.71 407.16,78.65 401.83,83.07 C396.37,87.75 390.13,90.09 383.37,90.09 C378.69,90.09 374.79,88.92 371.93,86.71 C369.07,84.5 367.64,81.64 367.64,78 C367.64,67.34 376.09,61.88 393.12,61.75 L409.89,61.49 Z" id="形状"></path>
                <path d="M463.71,25.61 C459.03,25.61 454.74,26.65 450.97,28.99 C447.2,31.33 444.21,34.45 441.87,38.48 L441.87,27.43 L434.07,27.43 L434.07,94.64 L441.87,94.64 L441.87,54.08 C442.26,47.45 444.34,42.12 448.24,38.22 C451.88,34.32 456.3,32.37 461.76,32.37 C474.5,32.37 480.87,39.52 480.87,53.82 L480.87,94.64 L488.67,94.64 L488.67,53.3 C488.67,34.84 480.35,25.61 463.71,25.61 Z" id="路径"></path>
                <path d="M532.74,25.61 C523.38,25.61 515.84,28.99 510.25,35.75 C505.05,41.99 502.45,49.92 502.45,59.41 C502.45,69.03 505.05,76.83 510.25,83.07 C515.84,89.7 523.38,93.08 532.74,93.08 C543.79,93.08 551.85,87.88 556.79,77.74 L556.79,90.61 C556.79,107.25 549.25,115.7 534.43,115.7 C527.8,115.7 522.86,114.27 519.48,111.54 C516.23,109.07 514.15,105.3 513.24,100.36 L505.44,100.36 C506.61,107.51 509.47,112.84 514.02,116.48 C518.83,120.25 525.59,122.2 534.43,122.2 C554.45,122.2 564.59,111.28 564.59,89.7 L564.59,27.43 L556.79,27.43 L556.79,40.95 C551.85,30.68 543.79,25.61 532.74,25.61 Z M533.65,32.24 C540.93,32.24 546.78,34.84 550.94,40.3 C554.84,45.24 556.79,51.61 556.79,59.41 C556.79,67.21 554.84,73.58 550.94,78.52 C546.78,83.72 540.93,86.32 533.52,86.32 C525.85,86.32 520,83.59 515.97,78.13 C512.2,73.19 510.38,66.95 510.38,59.41 C510.38,51.61 512.33,45.24 516.36,40.3 C520.52,34.84 526.24,32.24 533.65,32.24 Z" id="形状"></path>
            </g>
        </g>
    </g>
</svg>